<?xml version="1.0" encoding="iso-8859-1"?>
<!-- Uploaded to: SVG Repo, www.svgrepo.com, Generator: SVG Repo Mixer Tools -->
<svg fill="#000000" height="800px" width="800px" version="1.1" id="Layer_1" xmlns="http://www.w3.org/2000/svg" xmlns:xlink="http://www.w3.org/1999/xlink" 
	 viewBox="0 0 512 512" xml:space="preserve">
<g>
	<g>
		<circle cx="256" cy="256" r="23.985"/>
	</g>
</g>
<g>
	<g>
		<path d="M256,0C114.511,0,0,114.497,0,256c0,141.49,114.497,256,256,256c141.489,0,256-114.497,256-256
			C512,114.51,397.503,0,256,0z M71.048,192.711C64.099,213.022,60.577,234.316,60.577,256c0,9.063-7.347,16.41-16.41,16.41
			c-9.063,0-16.411-7.347-16.411-16.41c0-25.308,4.117-50.175,12.239-73.914c2.933-8.575,12.261-13.153,20.839-10.214
			C69.41,174.806,73.983,184.136,71.048,192.711z M393.368,256c0-9.063,7.347-16.41,16.411-16.41s16.41,7.347,16.41,16.41
			c0,93.841-76.346,170.189-170.189,170.189c-9.063,0-16.41-7.347-16.41-16.411c0-9.063,7.347-16.41,16.41-16.41
			C331.745,393.368,393.368,331.745,393.368,256z M82.314,107.911C125.785,56.972,189.092,27.756,256,27.756
			c9.063,0,16.41,7.347,16.41,16.41c0,9.063-7.347,16.411-16.41,16.411c-57.288,0-111.494,25.019-148.72,68.64
			c-5.882,6.893-16.24,7.714-23.136,1.83C77.25,125.164,76.431,114.805,82.314,107.911z M118.632,256
			c0,9.063-7.347,16.41-16.41,16.41c-9.063,0-16.411-7.347-16.411-16.41c0-93.841,76.346-170.189,170.189-170.189
			c9.063,0,16.41,7.347,16.41,16.41s-7.347,16.411-16.41,16.411C180.255,118.632,118.632,180.255,118.632,256z M163.007,256
			c0-51.359,41.634-92.993,92.993-92.993s92.993,41.634,92.993,92.993S307.359,348.993,256,348.993S163.007,307.359,163.007,256z
			 M313.915,476.827c-18.811,4.921-38.296,7.416-57.915,7.416c-9.063,0-16.41-7.347-16.41-16.41s7.347-16.411,16.41-16.411
			c16.817,0,33.507-2.135,49.608-6.349c8.763-2.296,17.736,2.955,20.029,11.722C327.932,465.566,322.683,474.533,313.915,476.827z
			 M377.635,449.166c-7.659,4.832-17.795,2.549-22.635-5.123c-4.836-7.664-2.543-17.799,5.122-22.635
			c57.17-36.069,91.301-97.904,91.301-165.407c0-9.063,7.347-16.41,16.411-16.41c9.063,0,16.41,7.347,16.41,16.41
			c0,39.244-10.13,77.955-29.297,111.948C436.376,400.887,409.641,428.971,377.635,449.166z"/>
	</g>
</g>
</svg>